<?xml version="1.0" encoding="UTF-8" standalone="no"?>
<!-- Created with Inkscape (http://www.inkscape.org/) -->

<svg
   xmlns:dc="http://purl.org/dc/elements/1.1/"
   xmlns:cc="http://creativecommons.org/ns#"
   xmlns:rdf="http://www.w3.org/1999/02/22-rdf-syntax-ns#"
   xmlns:svg="http://www.w3.org/2000/svg"
   xmlns="http://www.w3.org/2000/svg"
   xmlns:sodipodi="http://sodipodi.sourceforge.net/DTD/sodipodi-0.dtd"
   xmlns:inkscape="http://www.inkscape.org/namespaces/inkscape"
   width="256"
   height="256"
   viewBox="0 0 67.733332 67.733335"
   version="1.1"
   id="svg14485"
   inkscape:version="0.92.1 r15371"
   sodipodi:docname="flamingo-logo.svg">
  <defs
     id="defs14479" />
  <sodipodi:namedview
     id="base"
     pagecolor="#ffffff"
     bordercolor="#666666"
     borderopacity="1.0"
     inkscape:pageopacity="0.0"
     inkscape:pageshadow="2"
     inkscape:zoom="1.979899"
     inkscape:cx="139.48386"
     inkscape:cy="78.558726"
     inkscape:document-units="px"
     inkscape:current-layer="everything"
     showgrid="false"
     units="px"
     inkscape:window-width="1918"
     inkscape:window-height="1156"
     inkscape:window-x="2560"
     inkscape:window-y="21"
     inkscape:window-maximized="1" />
  <metadata
     id="metadata14482">
    <rdf:RDF>
      <cc:Work
         rdf:about="">
        <dc:format>image/svg+xml</dc:format>
        <dc:type
           rdf:resource="http://purl.org/dc/dcmitype/StillImage" />
        <dc:title></dc:title>
      </cc:Work>
    </rdf:RDF>
  </metadata>
  <g
     inkscape:label="Layer 1"
     inkscape:groupmode="layer"
     id="layer1"
     transform="translate(0,-229.26665)">
    <g
       id="everything"
       transform="matrix(1.2127367,0,0,1.2127367,-141.81047,86.653301)"
       style="stroke-width:0.82458133">
      <path
         sodipodi:nodetypes="sssssssssssssssssssssssssssss"
         style="opacity:1;vector-effect:none;fill:#0e5a9a;fill-opacity:1;fill-rule:evenodd;stroke:none;stroke-width:0.21817046;stroke-linecap:square;stroke-linejoin:miter;stroke-miterlimit:4;stroke-dasharray:none;stroke-dashoffset:0;stroke-opacity:1;paint-order:fill markers stroke"
         d="m 122.51942,117.5963 c -3.09419,0 -5.58516,2.49099 -5.58516,5.58517 0,14.89378 0,29.78753 0,44.68131 0,3.0942 2.49097,5.58516 5.58516,5.58516 14.89378,0 29.78755,0 44.68131,0 3.09419,0 5.58517,-2.49096 5.58517,-5.58516 0,-14.89378 0,-29.78753 0,-44.68131 0,-3.09418 -2.49098,-5.58517 -5.58517,-5.58517 -14.89376,0 -29.78753,0 -44.68131,0 z m 0,3.84418 c 0.92528,0 1.67555,0.77942 1.67556,1.74099 0,0.96157 -0.75027,1.74101 -1.67556,1.74101 -0.92528,0 -1.67555,-0.77944 -1.67555,-1.74101 1e-5,-0.96157 0.75028,-1.74099 1.67555,-1.74099 z m 44.68131,0 c 0.92529,0 1.67554,0.77942 1.67555,1.74099 1e-5,0.96157 -0.75025,1.74101 -1.67555,1.74101 -0.92528,0 -1.67555,-0.77944 -1.67555,-1.74101 1e-5,-0.96157 0.75028,-1.74099 1.67555,-1.74099 z m -44.68131,44.68132 c 0.92528,0 1.67555,0.77942 1.67556,1.74098 0,0.96158 -0.75027,1.74102 -1.67556,1.74102 -0.92528,0 -1.67555,-0.77944 -1.67555,-1.74102 1e-5,-0.96156 0.75028,-1.74098 1.67555,-1.74098 z m 44.68131,0 c 0.92529,0 1.67554,0.77942 1.67555,1.74098 1e-5,0.96158 -0.75025,1.74102 -1.67555,1.74102 -0.92528,0 -1.67555,-0.77944 -1.67555,-1.74102 1e-5,-0.96156 0.75028,-1.74098 1.67555,-1.74098 z"
         id="baseplate"
         inkscape:connector-curvature="0" />
      <g
         style="stroke-width:1.17128026"
         transform="matrix(0.704,0,0,0.704,-140.47242,499.91337)"
         id="head">
        <path
           sodipodi:nodetypes="ssccsssssssccsssss"
           inkscape:connector-curvature="0"
           id="body"
           transform="scale(0.26458333)"
           d="m 1524.0078,-2027.2734 c -19.287,0 -40.1154,4.5111 -52.7363,16.0527 -24.3224,22.2423 -39.6002,45.064 -42.4336,62.9232 l 40.3455,32.6794 c 4.744,-0.7344 9.9752,-2.1216 15.3713,-4.2081 23.6614,-9.1492 43.753,-18.8402 57.8945,-41.2285 2.9874,-4.7296 3.5638,-8.0524 6.6014,-10.8042 1.1629,-1.0535 3.6745,-2.4546 5.0983,-2.7603 7.0716,-1.5186 18.5505,-1.1574 28.1519,3.6251 12.8594,6.4053 21.736,16.3847 18.3591,39.6836 -3.3769,23.2989 -20.302,41.4709 -40.2165,69.1621 -15.2573,21.2154 -30.8854,47.7538 -38.4414,85.0468 h 37.0546 c 6.4283,-27.1263 18.1215,-45.7586 31.0391,-63.7207 19.1053,-26.5661 43.4143,-52.221 48.8008,-94.2441 4.2663,-33.284 -13.0001,-59.9147 -35.461,-73.4941 -19.532,-11.8086 -42.2479,-16.1667 -62.875,-17.5782 -5.2509,-0.3593 -10.8097,-1.136 -16.5527,-1.1347 z"
           style="color:#000000;font-style:normal;font-variant:normal;font-weight:normal;font-stretch:normal;font-size:medium;line-height:normal;font-family:sans-serif;font-variant-ligatures:normal;font-variant-position:normal;font-variant-caps:normal;font-variant-numeric:normal;font-variant-alternates:normal;font-feature-settings:normal;text-indent:0;text-align:start;text-decoration:none;text-decoration-line:none;text-decoration-style:solid;text-decoration-color:#000000;letter-spacing:normal;word-spacing:normal;text-transform:none;writing-mode:lr-tb;direction:ltr;text-orientation:mixed;dominant-baseline:auto;baseline-shift:baseline;text-anchor:start;white-space:normal;shape-padding:0;clip-rule:nonzero;display:inline;overflow:visible;visibility:visible;opacity:1;isolation:auto;mix-blend-mode:normal;color-interpolation:sRGB;color-interpolation-filters:linearRGB;solid-color:#000000;solid-opacity:1;vector-effect:none;fill:#eb6b77;fill-opacity:1;fill-rule:evenodd;stroke:none;stroke-width:1.17128026;stroke-linecap:butt;stroke-linejoin:miter;stroke-miterlimit:4;stroke-dasharray:none;stroke-dashoffset:0;stroke-opacity:1;color-rendering:auto;image-rendering:auto;shape-rendering:auto;text-rendering:auto;enable-background:accumulate" />
        <g
           style="stroke-width:1.17128026"
           id="eye"
           transform="rotate(-5.7302294,-5351.6203,-2912.0447)">
          <path
             inkscape:connector-curvature="0"
             id="eye_sclera"
             d="m 93.50553,89.577423 a 3.1088545,3.1088545 0 0 1 -3.108855,3.108855 3.1088545,3.1088545 0 0 1 -3.108854,-3.108855 3.1088545,3.1088545 0 0 1 3.108854,-3.108854 3.1088545,3.1088545 0 0 1 3.108855,3.108854 z"
             style="opacity:1;fill:#ffffff;fill-opacity:1;stroke:none;stroke-width:11.32042313;stroke-miterlimit:4;stroke-dasharray:none;stroke-opacity:1"
             transform="rotate(-25.428881)" />
          <path
             inkscape:connector-curvature="0"
             id="eye_pupil"
             d="m 91.381656,89.401672 a 1.4581788,1.4581788 0 0 1 -1.458179,1.458179 1.4581788,1.4581788 0 0 1 -1.458179,-1.458179 1.4581788,1.4581788 0 0 1 1.458179,-1.458178 1.4581788,1.4581788 0 0 1 1.458179,1.458178 z"
             style="opacity:1;fill:#000000;fill-opacity:1;stroke:none;stroke-width:11.32042313;stroke-miterlimit:4;stroke-dasharray:none;stroke-opacity:1"
             transform="rotate(-25.428881)" />
        </g>
        <g
           style="stroke-width:1.17128026"
           id="beak"
           transform="rotate(-5.7302294,-5351.6203,-2912.0447)">
          <path
             sodipodi:nodetypes="ccscccsccc"
             inkscape:connector-curvature="0"
             id="beak_base"
             d="m 107.24298,68.079665 -2.55611,-1.95786 c -0.38962,-1.008659 -0.8548,-2.496063 -0.77541,-3.146262 0.79122,-6.480389 6.2206,-18.361069 6.2206,-18.361069 l 8.43676,0.823239 1.32136,8.845808 c -1.80042,3.320637 -5.50635,6.257637 -5.50635,9.794426 0,1.294249 0.3642,3.023714 0.96846,5.015975 l -3.68104,3.688303 z"
             style="fill:#e53346;fill-opacity:1;fill-rule:evenodd;stroke:none;stroke-width:0.30990124px;stroke-linecap:butt;stroke-linejoin:miter;stroke-opacity:1" />
          <path
             sodipodi:nodetypes="cscsssscscsc"
             inkscape:connector-curvature="0"
             id="beak_tip"
             transform="matrix(0.26326122,0.02641725,-0.02641725,0.26326122,-317.4942,519.77968)"
             d="m 1460.877,-1948.3848 c 0,0 -19.4155,33.1032 -27.3399,52.1075 -2.3572,5.653 -5.5351,17.5214 -5.5351,17.5214 0,0 -13.799,9.0341 -11.5254,13.3946 2.1226,4.0709 4.9658,8.1124 7.3515,11.2734 11.534,15.2826 39.2938,36.0195 42.3887,38.7617 6.9939,6.1968 11.1676,-4.3037 8.5391,-8.998 -6.7641,-12.0802 -12.872,-23.8544 -17.0489,-33.8848 -3.3638,4.0618 -6.1214,6.7091 -10.83,5.4961 -9.42,-2.4267 -16.2168,-26.332 -16.2168,-26.332 0,0 2.5633,-11.2896 4.832,-16.5801 8.2385,-19.212 25.3848,-52.7598 25.3848,-52.7598 z"
             style="fill:#000000;fill-rule:evenodd;stroke:none;stroke-width:1.17128015px;stroke-linecap:butt;stroke-linejoin:miter;stroke-opacity:1" />
        </g>
      </g>
    </g>
  </g>
</svg>
